<?xml version="1.0" encoding="UTF-8"?>
<svg id="extra_variante" xmlns="http://www.w3.org/2000/svg" viewBox="0 0 1063 841.89">
  <defs>
    <style>
      .cls-1 {
        fill: #312783;
      }

      .cls-2 {
        fill: #1d1d1b;
        stroke: #1d1d1b;
        stroke-miterlimit: 10;
        stroke-width: 1.26px;
      }
    </style>
  </defs>
  <line class="cls-2" x1="409.67" y1="296.78" x2="409.67" y2="296.72"/>
  <path class="cls-1" d="M306.14,517.3h-88.05v-192.72h89.03c30.39,0,56.2,9.14,74.64,26.44,18.37,17.23,28.08,41.24,28.08,69.43s-10.54,51.45-29.67,69.28c-19.07,17.78-45.36,27.57-74.02,27.57ZM238.75,505.54h66.65c50.29,0,82.78-33.39,82.78-85.06s-29.28-84.12-80.34-84.12h-69.1v169.18Z"/>
  <path class="cls-1" d="M455.77,517.3h-19.37v-185.92l19.37-8.36v194.28Z"/>
  <path class="cls-1" d="M601.17,517.3h-113.71v-192.72h105.89c47.12,0,57.01,21.04,57.01,38.68s-11.65,30.53-26.58,37.51c16.48,2.55,30.56,8.76,40.3,18.04,9.89,9.42,15.12,21.91,15.12,36.1,0,39.65-28.44,62.39-78.03,62.39ZM508.12,505.54h93.78c37.78,0,56.14-16.67,56.14-50.97,0-30.93-20.25-45.34-63.72-45.34h-86.2v96.3ZM508.12,394.63h77.9c29.79,0,44.9-10.69,44.9-31.78,0-17.83-12.85-26.5-39.28-26.5h-83.52v58.28Z"/>
  <path class="cls-1" d="M775.64,518.17c-51.88,0-77.1-26.17-77.1-79.99v-107.73l20.66-8.13v112.44c0,48.87,19.15,71.63,60.27,71.63,13.97,0,26.13-4.82,35.15-13.95,12.35-12.49,18.72-32.51,18.43-57.88v-107.56l11.85-4.68v115.62c0,49.49-26.54,80.23-69.27,80.23Z"/>
</svg>